Patient4_TMGait_0pt2_01_right_25_GRF.mot
version=1
nRows=32
nColumns=19
inDegrees=no
endheader
time	F1x	F1y	F1z	M1x	M1y	M1z	F2x	F2y	F2z	M2x	M2y	M2z	EC1x	EC1y	EC1z	EC2x	EC2y	EC2z
56.04	-5.0711	710.5481	47.3685	-236.256	-51.5446	760.7769	-1.2855	56.6435	-3.3069	21.5978	3.4558	57.3387	-0.0592	0.0182	-0.0073	-0.0462	0.0165	0.9585
56.062	-5.9483	736.6982	49.1601	-244.7806	-53.2658	787.888	-1.2052	48.2377	-3.0846	18.2772	3.3309	48.9449	-0.0592	0.0182	-0.0073	-0.0462	0.0165	0.9585
56.084	-6.8367	766.8354	51.0881	-254.6269	-55.0405	818.6273	-1.2714	38.7892	-2.6757	14.608	3.0382	39.4488	-0.0592	0.0182	-0.0073	-0.0462	0.0165	0.9585
56.106	-7.5502	798.4844	52.9192	-264.9802	-56.581	850.3219	-1.3707	29.1881	-2.1305	10.9295	2.5835	29.7542	-0.0592	0.0182	-0.0073	-0.0462	0.0165	0.9585
56.128	-7.8905	828.5497	54.4299	-274.8103	-57.6094	879.7123	-1.3507	20.3021	-1.5361	7.5599	2.0063	20.7485	-0.0592	0.0182	-0.0073	-0.0462	0.0165	0.9585
56.15	-7.6901	853.6706	55.4402	-282.9957	-57.9081	903.3148	-1.1285	12.7988	-0.98461	4.738	1.3794	13.1187	-0.0592	0.0182	-0.0073	-0.0462	0.0165	0.9585
56.172	-6.8511	870.6985	55.8196	-288.4872	-57.3373	917.9224	-0.77772	7.0403	-0.53504	2.5882	0.79638	7.2459	-0.0592	0.0182	-0.0073	-0.0462	0.0165	0.9585
56.194	-5.371	877.369	55.4815	-290.5381	-55.8336	921.2986	-0.4046	3.0204	-0.20591	1.0991	0.32205	3.1365	-0.0592	0.0182	-0.0073	-0.0462	0.0165	0.9585
56.216	-3.3257	872.9778	54.3714	-288.9348	-53.3898	912.8461	-0.070364	0.47617	0.01014	0.16557	-0.023	0.5267	-0.0592	0.0182	-0.0073	-0.0462	0.0165	0.9585
56.238	-0.82894	858.6733	52.4803	-284.0875	-50.0508	893.8652	0.19633	-0.96432	0.13302	-0.35589	-0.24756	-0.96508	-0.0592	0.0182	-0.0073	-0.0462	0.0165	0.9585
56.26	2.0116	837.2265	49.8818	-276.9453	-45.9374	867.2957	0.3875	-1.6859	0.18554	-0.61204	-0.373	-1.7335	-0.0592	0.0182	-0.0073	-0.0462	0.0165	0.9585
56.282	5.1111	812.36	46.7545	-268.7607	-41.263	837.0161	0.50876	-2.0311	0.19166	-0.7338	-0.427	-2.1298	-0.0592	0.0182	-0.0073	-0.0462	0.0165	0.9585
56.304	8.4253	787.8864	43.3661	-260.7978	-36.3143	806.9682	0.57134	-2.2749	0.17298	-0.82612	-0.43688	-2.4375	-0.0592	0.0182	-0.0073	-0.0462	0.0165	0.9585
56.326	11.9439	766.9314	40.0337	-254.0711	-31.4141	780.3764	0.58549	-2.607	0.14332	-0.96145	-0.42194	-2.8471	-0.0592	0.0182	-0.0073	-0.0462	0.0165	0.9585
56.348	15.6478	751.4085	37.0738	-249.1709	-26.885	759.2412	0.55765	-3.1215	0.11001	-1.1755	-0.39084	-3.4483	-0.0592	0.0182	-0.0073	-0.0462	0.0165	0.9585
56.37	19.4746	741.8482	34.7572	-246.2135	-23.0184	744.1917	0.48943	-3.8053	0.078367	-1.4631	-0.34331	-4.2172	-0.0592	0.0182	-0.0073	-0.0462	0.0165	0.9585
56.392	23.3048	737.6051	33.2713	-244.9211	-20.0403	734.7084	0.38024	-4.5235	0.050931	-1.7707	-0.27481	-4.9992	-0.0592	0.0182	-0.0073	-0.0462	0.0165	0.9585
56.414	26.9747	737.3385	32.695	-244.7902	-18.0795	729.5923	0.22656	-4.9908	0.024774	-1.9845	-0.17709	-5.4744	-0.0592	0.0182	-0.0073	-0.0462	0.0165	0.9585
56.436	30.3088	739.4917	33.0016	-245.2603	-17.1609	727.4237	0.026019	-4.7475	-0.0072366	-1.9213	-0.043009	-5.1263	-0.0592	0.0182	-0.0073	-0.0462	0.0165	0.9585
56.458	33.1614	742.5967	34.0801	-245.8199	-17.2172	726.8427	-0.21711	-3.1486	-0.048972	-1.3234	0.12766	-3.2293	-0.0592	0.0182	-0.0073	-0.0462	0.0165	0.9585
56.48	35.444	745.376	35.7656	-246.0453	-18.1089	726.6318	-0.48407	0.63391	-0.098569	0.14091	0.32958	1.1377	-0.0592	0.0182	-0.0073	-0.0462	0.0165	0.9585
56.502	37.133	746.6813	37.8537	-245.584	-19.6357	725.6445	-0.73322	7.5473	-0.15094	2.8535	0.54785	9.0182	-0.0592	0.0182	-0.0073	-0.0462	0.0165	0.9585
56.524	38.2574	745.3857	40.1077	-244.1173	-21.5472	722.7131	-0.88937	18.5055	-0.19643	7.188	0.74783	21.4043	-0.0592	0.0182	-0.0073	-0.0462	0.0165	0.9585
56.546	38.8498	740.2863	42.2768	-241.3134	-23.5786	716.5833	-0.85401	34.1528	-0.22016	13.4154	0.87736	38.9687	-0.0592	0.0182	-0.0073	-0.0462	0.0165	0.9585
56.568	38.9373	730.2437	44.1021	-236.8613	-25.4666	706.0721	-0.70335	54.7221	-0.2866	21.6337	1.0364	61.9142	-0.0592	0.0182	-0.0073	-0.0462	0.0165	0.9585
56.59	38.5326	714.4316	45.3599	-230.5469	-26.9913	690.325	-0.76617	79.8291	-0.68539	31.6732	1.6718	89.7823	-0.0592	0.0182	-0.0073	-0.0462	0.0165	0.9585
56.612	37.6082	692.5867	45.895	-222.3293	-28.0164	669.0654	-1.3369	108.0672	-1.7442	42.944	3.247	121.0098	-0.0592	0.0182	-0.0073	-0.0462	0.0165	0.9585
56.634	36.1196	665.3514	45.6219	-212.4535	-28.4813	642.9136	-2.4527	137.2461	-3.5046	54.5571	5.7955	153.1864	-0.0592	0.0182	-0.0073	-0.0462	0.0165	0.9585
56.656	34.0801	634.4184	44.5486	-201.4993	-28.3968	613.4915	-3.9572	165.7137	-5.6753	65.8597	8.9189	184.5032	-0.0592	0.0182	-0.0073	-0.0462	0.0165	0.9585
56.678	31.6122	602.0685	42.7862	-190.2272	-27.8284	582.9386	-5.6834	193.1349	-7.8836	76.7302	12.1412	214.61	-0.0592	0.0182	-0.0073	-0.0462	0.0165	0.9585
56.7	28.9269	570.3088	40.5187	-179.2959	-26.8727	553.0822	-7.5214	219.9154	-9.8895	87.3337	15.1636	243.9764	-0.0592	0.0182	-0.0073	-0.0462	0.0165	0.9585
56.722	26.2691	540.3341	37.9808	-169.0877	-25.6603	524.9486	-9.3838	246.4575	-11.6487	97.819	17.9148	273.0622	-0.0592	0.0182	-0.0073	-0.0462	0.0165	0.9585
